<svg version="1.1" xmlns="http://www.w3.org/2000/svg" xmlns:xlink="http://www.w3.org/1999/xlink" width="133.77084" height="181.13381" viewBox="0,0,133.77084,181.13381"><defs><linearGradient x1="219.5555" y1="159.93329" x2="236.62046" y2="159.93329" gradientUnits="userSpaceOnUse" id="color-1"><stop offset="0" stop-color="#fff9e9" stop-opacity="0"/><stop offset="1" stop-color="#fff9e9"/></linearGradient><linearGradient x1="219.5555" y1="159.93329" x2="236.62046" y2="159.93329" gradientUnits="userSpaceOnUse" id="color-2"><stop offset="0" stop-color="#00186c"/><stop offset="1" stop-color="#005ac1"/></linearGradient><linearGradient x1="244.70385" y1="159.93329" x2="261.76882" y2="159.93329" gradientUnits="userSpaceOnUse" id="color-3"><stop offset="0" stop-color="#fff9e9"/><stop offset="1" stop-color="#fff9e9" stop-opacity="0"/></linearGradient><linearGradient x1="244.70385" y1="159.93329" x2="261.76882" y2="159.93329" gradientUnits="userSpaceOnUse" id="color-4"><stop offset="0" stop-color="#00186c"/><stop offset="1" stop-color="#005ac1"/></linearGradient><linearGradient x1="236.91983" y1="153.50743" x2="245.00324" y2="153.50743" gradientUnits="userSpaceOnUse" id="color-5"><stop offset="0" stop-color="#00186c"/><stop offset="1" stop-color="#005ac1"/></linearGradient><linearGradient x1="215.85928" y1="154.35199" x2="220.0175" y2="154.35199" gradientUnits="userSpaceOnUse" id="color-6"><stop offset="0" stop-color="#00186c"/><stop offset="1" stop-color="#005ac1"/></linearGradient><linearGradient x1="262.17729" y1="154.32307" x2="265.29595" y2="154.32307" gradientUnits="userSpaceOnUse" id="color-7"><stop offset="0" stop-color="#00186c"/><stop offset="1" stop-color="#005ac1"/></linearGradient><linearGradient x1="206.45866" y1="143.94377" x2="275.8383" y2="143.94377" gradientUnits="userSpaceOnUse" id="color-8"><stop offset="0" stop-color="#00186c"/><stop offset="1" stop-color="#005ac1"/></linearGradient><linearGradient x1="222.87798" y1="122.61208" x2="257.95364" y2="122.61208" gradientUnits="userSpaceOnUse" id="color-9"><stop offset="0" stop-color="#00186c"/><stop offset="1" stop-color="#005ac1"/></linearGradient><linearGradient x1="234.78424" y1="122.78236" x2="249.30251" y2="122.78236" gradientUnits="userSpaceOnUse" id="color-10"><stop offset="0" stop-color="#faff00"/><stop offset="1" stop-color="#ffd400"/></linearGradient><linearGradient x1="196.94948" y1="220.36326" x2="287.22688" y2="220.36326" gradientUnits="userSpaceOnUse" id="color-11"><stop offset="0" stop-color="#00186c"/><stop offset="1" stop-color="#005ac1"/></linearGradient></defs><g transform="translate(-171.48912,-99.94956)"><g data-paper-data="{&quot;isPaintingLayer&quot;:true}" fill-rule="nonzero" stroke-linejoin="miter" stroke-miterlimit="10" stroke-dasharray="" stroke-dashoffset="0" style="mix-blend-mode: normal"><g data-paper-data="{&quot;index&quot;:null}" fill="#ffffff" stroke="#000000" stroke-width="1" stroke-linecap="round"><path d="M266.91267,208.05642c0,0 25.61961,12.08444 33.68577,24.62437c8.14995,12.67016 -37.64963,-8.52282 -37.64963,-8.52282z"/><path d="M268.02421,192.77929c0,0 26.51132,9.9774 35.5632,21.82544c9.14591,11.97111 -38.21465,-5.4565 -38.21465,-5.4565z"/></g><g data-paper-data="{&quot;index&quot;:null}" fill="#ffffff" stroke="#000000" stroke-width="1" stroke-linecap="round"><path d="M216.25068,210.0718c0,0 -27.75403,5.66663 -41.72388,0.45547c-14.11494,-5.26529 35.25472,-15.72382 35.25472,-15.72382z"/><path d="M224.51031,222.97153c0,0 -27.2062,7.88804 -41.55104,3.82132c-14.49383,-4.10896 33.87073,-18.51775 33.87073,-18.51775z"/></g><path d="M246.09882,275.34927v-15.90973h6.65317v15.90973z" fill="#c56900" stroke="none" stroke-width="0" stroke-linecap="butt"/><path d="M225.93142,275.55717v-15.90973h6.65317v15.90973z" fill="#c56900" stroke="none" stroke-width="0" stroke-linecap="butt"/><path d="M240.71181,139.02239c16.3708,0 29.64196,12.85118 29.64196,28.70393c0,15.85274 -13.27117,28.70393 -29.64196,28.70393c-16.3708,0 -29.64196,-12.85118 -29.64196,-28.70392c0,-15.85274 13.27118,-28.70392 29.64196,-28.70392z" fill="#000000" stroke="#000000" stroke-width="0" stroke-linecap="butt"/><path d="M240.3366,174.29263c18.8575,0 34.14453,19.99073 34.14453,44.65054c0,24.65981 -15.28703,44.65054 -34.14453,44.65054c-18.8575,0 -34.14452,-19.99073 -34.14452,-44.65054c0,-24.65981 15.28703,-44.65054 34.14452,-44.65054z" fill="#000000" stroke="#000000" stroke-width="2.5" stroke-linecap="butt"/><path d="M227.86149,148.21982c6.75947,1.2305 11.2693,9.86945 10.07296,19.29562c-1.19634,9.42618 -7.64578,16.07007 -14.40525,14.83956c-6.75947,-1.2305 -11.26929,-9.86945 -10.07298,-19.29562c1.19634,-9.42618 7.6458,-16.07006 14.40527,-14.83956z" fill="#ffffff" stroke="#000000" stroke-width="0" stroke-linecap="butt"/><path d="M268.65569,164.12984c1.23922,9.42618 -3.43223,18.06512 -10.43395,19.29562c-7.00173,1.2305 -13.68231,-5.41339 -14.92153,-14.83956c-1.23922,-9.42618 3.43223,-18.06512 10.43397,-19.29562c7.00174,-1.2305 13.68231,5.41339 14.92153,14.83956z" data-paper-data="{&quot;index&quot;:null}" fill="#ffffff" stroke="#000000" stroke-width="0" stroke-linecap="butt"/><path d="M240.28136,174.61258c18.8575,0 34.14452,19.99073 34.14452,44.65054c0,24.65981 -15.28702,44.65054 -34.14452,44.65054c-18.8575,0 -34.14453,-19.99073 -34.14453,-44.65054c0,-24.65983 15.28703,-44.65054 34.14453,-44.65054z" fill="#ffffff" stroke="#000000" stroke-width="0" stroke-linecap="butt"/><path d="M240.56725,171.41576c2.83439,0 5.13212,1.499 5.13212,3.34809c0,1.8491 -2.29773,3.34811 -5.13212,3.34811c-2.83437,0 -5.13212,-1.499 -5.13212,-3.34811c0,-1.8491 2.29773,-3.34809 5.13212,-3.34809z" fill="#323336" stroke="none" stroke-width="0" stroke-linecap="butt"/><path d="M222.69679,183.07219c0,0 3.38285,-2.77047 5.43418,-4.06379c2.13337,-1.34505 6.68411,-2.52088 6.68411,-2.52088" fill="none" stroke="#000000" stroke-width="0.5" stroke-linecap="round"/><path d="M224.4789,185.0028c0,0 3.38285,-2.77047 5.43418,-4.06379c2.13337,-1.34505 6.6841,-2.52088 6.6841,-2.52088" fill="none" stroke="#000000" stroke-width="0.5" stroke-linecap="round"/><path d="M223.58782,183.96327c0,0 3.38285,-2.77047 5.43418,-4.06379c2.13337,-1.34505 6.68411,-2.52088 6.68411,-2.52088" fill="none" stroke="#000000" stroke-width="0.5" stroke-linecap="round"/><path d="M246.01254,176.19054c0,0 4.55073,1.17583 6.68411,2.52088c2.05136,1.29334 5.43418,4.06379 5.43418,4.06379" data-paper-data="{&quot;index&quot;:null}" fill="none" stroke="#000000" stroke-width="0.5" stroke-linecap="round"/><path d="M245.41852,177.08157c0,0 4.55073,1.17584 6.68411,2.52088c2.05136,1.29334 5.43418,4.06378 5.43418,4.06378" data-paper-data="{&quot;index&quot;:null}" fill="none" stroke="#000000" stroke-width="0.5" stroke-linecap="round"/><path d="M245.12151,178.41816c0,0 4.55073,1.17583 6.68411,2.52088c2.05136,1.29334 5.43418,4.06379 5.43418,4.06379" data-paper-data="{&quot;index&quot;:null}" fill="none" stroke="#000000" stroke-width="0.5" stroke-linecap="round"/><path d="M226.65911,155.06563c1.9616,0 3.55181,2.25706 3.55181,5.04129c0,2.78422 -1.59018,5.0413 -3.55181,5.0413c-1.9616,0 -3.55181,-2.25708 -3.55181,-5.0413c0,-2.78422 1.59018,-5.04129 3.55181,-5.04129z" fill="#000000" stroke="none" stroke-width="0" stroke-linecap="butt"/><path d="M254.20735,154.89237c1.9616,0 3.55181,2.25706 3.55181,5.04128c0,2.78422 -1.59019,5.0413 -3.55181,5.0413c-1.9616,0 -3.55181,-2.25708 -3.55181,-5.0413c0,-2.78422 1.59018,-5.04128 3.55181,-5.04128z" fill="#000000" stroke="none" stroke-width="0" stroke-linecap="butt"/><path d="M228.47834,158.01101c0.66981,0 1.21282,0.7757 1.21282,1.7326c0,0.95687 -0.54299,1.7326 -1.21282,1.7326c-0.66981,0 -1.21282,-0.7757 -1.21282,-1.7326c0,-0.9569 0.54299,-1.7326 1.21282,-1.7326z" fill="#ffffff" stroke="none" stroke-width="0" stroke-linecap="butt"/><path d="M252.73464,158.01101c0.66981,0 1.21282,0.7757 1.21282,1.7326c0,0.95687 -0.54299,1.7326 -1.21282,1.7326c-0.66981,0 -1.21281,-0.7757 -1.21281,-1.7326c0,-0.9569 0.54298,-1.7326 1.21281,-1.7326z" fill="#ffffff" stroke="none" stroke-width="0" stroke-linecap="butt"/><path d="M232.16877,274.27056l5.4057,4.98986l-7.06898,-0.62372l-7.06897,1.45538l2.07911,-3.11866l-12.05885,-0.41583l15.80125,-3.11866z" fill="#c56900" stroke="#c56900" stroke-width="0.5" stroke-linecap="round"/><path d="M249.84121,274.06264l15.80125,3.11867l-12.05886,0.41583l2.07911,3.11867l-7.06898,-1.45539l-7.06897,0.62373l5.4057,-4.98987z" data-paper-data="{&quot;index&quot;:null}" fill="#c56900" stroke="#c56900" stroke-width="0.5" stroke-linecap="round"/><g stroke-width="2.5" stroke-linecap="round"><path d="M236.62046,165.42872c0,0 -5.40252,2.07546 -8.0645,2.13865c-2.81787,0.0669 -9.00046,-2.13865 -9.00046,-2.13865v-10.9442c0,0 6.07844,-2.11575 8.97274,-2.18572c2.40255,-0.05808 8.09222,2.18572 8.09222,2.18572z" fill="url(#color-1)" stroke="url(#color-2)"/><path d="M236.32108,154.48451c0,0 2.83976,-1.95432 3.89201,-1.95432c1.48812,0 4.19138,1.95432 4.19138,1.95432" fill="none" stroke="#005ac1"/><path d="M244.70386,154.48451c0,0 5.6897,-2.24382 8.09222,-2.18572c2.89431,0.06997 8.97274,2.18572 8.97274,2.18572v10.9442c0,0 -6.18259,2.20553 -9.00046,2.13865c-2.662,-0.0632 -8.06451,-2.13865 -8.06451,-2.13865z" data-paper-data="{&quot;index&quot;:null}" fill="url(#color-3)" stroke="url(#color-4)"/><path d="M236.91983,154.48451c0,0 2.70328,-1.95432 4.1914,-1.95432c1.05226,0 3.89201,1.95432 3.89201,1.95432" data-paper-data="{&quot;index&quot;:null}" fill="none" stroke="url(#color-5)"/></g><path d="M215.85928,153.65894l4.15822,1.38607" fill="none" stroke="url(#color-6)" stroke-width="2" stroke-linecap="round"/><path d="M265.29595,153.71669l-3.11866,1.21282" fill="none" stroke="url(#color-7)" stroke-width="2" stroke-linecap="round"/><path d="M241.14848,138.91627c19.15866,0 34.68982,2.2509 34.68982,5.02752c0,2.77662 -15.53116,5.0275 -34.68982,5.0275c-19.15866,0 -34.68982,-2.25088 -34.68982,-5.0275c0,-2.77662 15.53116,-5.02752 34.68982,-5.02752z" fill="url(#color-8)" stroke="#000000" stroke-width="0" stroke-linecap="butt"/><g stroke="#000000" stroke-width="0" stroke-linecap="round"><path d="M257.93034,143.44137c-0.09789,2.56257 -18.68966,1.69004 -18.68966,1.69004c0,0 -16.52785,0.12521 -16.36145,-1.46603c1.55158,-14.83762 11.59933,-46.8754 20.7588,-43.46329c8.98956,3.3488 14.7292,31.80248 14.2923,43.23928z" fill="url(#color-9)"/><path d="M240.97236,119.97346l8.33016,-0.53503l-14.51828,16.05092l7.37814,-12.84074l-7.37814,0.53503l10.47219,-13.10826z" fill="url(#color-10)"/></g><path d="M195.77273,198.70661c0.97212,-2.15255 18.54795,-4.75653 20.64192,-13.091c0.55022,-0.73291 47.65326,-3.97262 49.36749,2.28772c2.92649,4.14668 20.63144,13.20671 21.14021,14.46177c1.80253,4.44667 -4.89783,26.83533 -6.97697,29.29971c-1.46296,1.73407 -3.11211,-1.71705 -4.93197,-0.15357c-1.77301,1.52325 -0.65826,6.22935 -2.93302,11.68173c-1.62554,3.89622 -6.35594,8.7843 -8.81686,10.36784c-5.46046,3.51368 -39.23154,4.80032 -46.24014,-0.65204c-2.80009,-2.17832 -6.96932,-8.54615 -8.48571,-13.87284c-1.78403,-6.26687 -3.35832,-8.70211 -3.35832,-11.08519c0,0 -8.71777,1.33065 -9.283,-1.0252c0,0 -3.19772,-21.41203 -0.12363,-28.21893z" fill="url(#color-11)" stroke="#005ac1" stroke-width="1.5" stroke-linecap="butt"/></g></g></svg>