<svg version="1.1" xmlns="http://www.w3.org/2000/svg" xmlns:xlink="http://www.w3.org/1999/xlink" width="152.80933" height="162.21286" viewBox="0,0,152.80933,162.21286"><g transform="translate(-163.59534,-98.89357)"><g data-paper-data="{&quot;isPaintingLayer&quot;:true}" fill-rule="nonzero" stroke="none" stroke-width="0" stroke-linecap="round" stroke-linejoin="miter" stroke-miterlimit="10" stroke-dasharray="" stroke-dashoffset="0" style="mix-blend-mode: normal"><path d="M245.10899,121.60643l-6.89217,-8.45858l-7.04882,7.36211l3.28945,-8.14531l-7.3621,-6.89217l8.45858,2.81953l2.97616,-9.39844l1.87967,9.86835l10.49491,-2.81952l-9.55507,6.42225z" fill="#ff6363"/><path d="M310.60899,163.7731l-6.89218,-8.45857l-7.04882,7.3621l3.28945,-8.14531l-7.3621,-6.89218l8.45858,2.81953l2.97616,-9.39844l1.87968,9.86835l10.49491,-2.81952l-9.55507,6.42226z" fill="#ffcd63"/><path d="M304.94232,228.10643l-6.89218,-8.45857l-7.04882,7.3621l3.28945,-8.14531l-7.3621,-6.89218l8.45858,2.81953l2.97616,-9.39844l1.87967,9.86835l10.49491,-2.81952l-9.55507,6.42226z" fill="#fff363"/><path d="M244.10898,261.10643l-6.89218,-8.45858l-7.04882,7.3621l3.28945,-8.14531l-7.36209,-6.89218l8.45858,2.81953l2.97616,-9.39844l1.87968,9.86835l10.4949,-2.81952l-9.55507,6.42226z" fill="#a3ff63"/><path d="M186.60898,226.7731l-6.89218,-8.45857l-7.04882,7.3621l3.28945,-8.14531l-7.36209,-6.89218l8.45858,2.81953l2.97616,-9.39844l1.87967,9.86835l10.4949,-2.81952l-9.55507,6.42226z" fill="#63ffe9"/><path d="M181.60898,161.10643l-6.89218,-8.45857l-7.04882,7.3621l3.28945,-8.14531l-7.3621,-6.89217l8.45858,2.81953l2.97616,-9.39844l1.87967,9.86835l10.4949,-2.81952l-9.55507,6.42226z" fill="#ef63ff"/></g></g></svg>