<svg version="1.1" xmlns="http://www.w3.org/2000/svg" xmlns:xlink="http://www.w3.org/1999/xlink" width="81.08268" height="62.35506" viewBox="0,0,81.08268,62.35506"><defs><linearGradient x1="199.20867" y1="215.76239" x2="280.29134" y2="215.76239" gradientUnits="userSpaceOnUse" id="color-1"><stop offset="0" stop-color="#0015eb"/><stop offset="1" stop-color="#00c4f5"/></linearGradient><linearGradient x1="213.22377" y1="177.70034" x2="264.56024" y2="177.70034" gradientUnits="userSpaceOnUse" id="color-2"><stop offset="0" stop-color="#0015eb"/><stop offset="1" stop-color="#00c4f5"/></linearGradient><linearGradient x1="231.56668" y1="187.73334" x2="251.90001" y2="187.73334" gradientUnits="userSpaceOnUse" id="color-3"><stop offset="0" stop-color="#faff00"/><stop offset="1" stop-color="#ffd400"/></linearGradient></defs><g transform="translate(-199.20867,-159.28288)"><g data-paper-data="{&quot;isPaintingLayer&quot;:true}" fill-rule="nonzero" stroke="#000000" stroke-width="0" stroke-linejoin="miter" stroke-miterlimit="10" stroke-dasharray="" stroke-dashoffset="0" style="mix-blend-mode: normal"><path d="M239.75001,209.88683c22.39036,0 40.54134,2.63058 40.54134,5.87556c0,3.24498 -18.15098,5.87555 -40.54134,5.87555c-22.39037,0 -40.54134,-2.63057 -40.54134,-5.87555c0,-3.24498 18.15097,-5.87556 40.54134,-5.87556z" fill="url(#color-1)" stroke-linecap="butt"/><path d="M263.98356,213.47519c-0.1371,3.19305 -26.17548,2.10583 -26.17548,2.10583c0,0 -23.1478,0.15603 -22.91475,-1.82672c2.17303,-18.48818 16.24525,-58.40838 29.0734,-54.15677c12.59018,4.17273 20.62873,39.62699 20.01684,53.87765z" fill="url(#color-2)" stroke-linecap="round"/><path d="M240.23335,184.23334l11.66666,-0.66667l-20.33334,20l10.33334,-16l-10.33334,0.66667l14.66667,-16.33334z" fill="url(#color-3)" stroke-linecap="round"/></g></g></svg>